# Aspose.3D Wavefront OBJ Exporter
# Copyright 2004-2023 Aspose Pty Ltd.
# File created: 05/31/2023 20:45:52

mtllib material.lib

#
# object node_id805
#

v 0.27157259732484816 0.10362000204004352 0.26029798916598612
v 0.25913248838439796 0.09604132814669942 0.26029798916598612
v 0.26762847490702324 0.09604132814669942 0.26029798916598612
v 0.21575855730743364 0.11241403866814914 0.26029798916598612
v 0.19633602946289912 0.1193965004278409 0.26029798916598612
v 0.20514155177514932 0.11241403866814914 0.26029798916598612
v 0.18602857956060404 0.12455596875750774 0.26029798916598612
v 0.16145802799804132 0.13062122652159668 0.26029798916598612
v 0.1444661886141927 0.14761307830981818 0.26029798916598612
v 0.14931609258382084 0.12910779839105058 0.26029798916598612
v 0.13141845911741256 0.16186468733420168 0.26029798916598612
v 0.13748370444575198 0.15124763860739632 0.26029798916598612
v 0.14841031520893644 0.15519176287097646 0.26029798916598612
v 0.14780262782190556 0.16459345953083448 0.26029798916598612
v 0.1435489539510102 0.18309878612128916 0.26029798916598612
v 0.14021247715102802 0.17552005355496702 0.26029798916598612
v 0.14870840519678996 0.18219300602120448 0.26029798916598612
v 0.1535697664547162 0.16035123120064332 0.26029798916598612
v 0.15113909626805012 0.17733162975685768 0.26029798916598612
v 0.1705501777886984 0.17157594662658492 0.26029798916598612
v 0.15932544779922874 0.18552943424915936 0.26029798916598612
v 0.16266190789153568 0.17005103859449622 0.26029798916598612
v 0.179355663552909 0.17976228055168142 0.26029798916598612
v 0.17358852492009836 0.1636876794307498 0.26029798916598612
v 0.19998205301691808 0.17521047892115082 0.26029798916598612
v 0.18784013848729164 0.18249107008351228 0.26029798916598612
v 0.18784013848729164 0.17399514552287832 0.26029798916598612
v 0.19148614272306108 0.17187403202452112 0.26029798916598612
v 0.19421489663220248 0.15063996190718426 0.26029798916598612
v 0.24245024222280788 0.12455596875750774 0.26029798916598612
v 0.22879485457742856 0.13911714308137002 0.26029798916598612
v 0.26762847490702324 0.10907756243503042 0.26029798916598612
v 0.180869101164852 0.17339894005660982 0.26029798916598612
v 0.17814029086730664 0.16398578083040726 0.26029798916598612
v 0.16145802799804132 0.14639773491046986 0.26029798916598612
v 0.26762847490702324 0.09604132814669942 0.244789922916686
v 0.25913248838439796 0.09604132814669942 0.244789922916686
v 0.27157259732484816 0.10362000204004352 0.244789922916686
v 0.20514155177514932 0.11241403866814914 0.244789922916686
v 0.19633602946289912 0.1193965004278409 0.244789922916686
v 0.21575855730743364 0.11241403866814914 0.244789922916686
v 0.18602857956060404 0.12455596875750774 0.244789922916686
v 0.14931609258382084 0.12910779839105058 0.244789922916686
v 0.1444661886141927 0.14761307830981818 0.244789922916686
v 0.16145802799804132 0.13062122652159668 0.244789922916686
v 0.13748370444575198 0.15124763860739632 0.244789922916686
v 0.13141845911741256 0.16186468733420168 0.244789922916686
v 0.14841031520893644 0.15519176287097646 0.244789922916686
v 0.14021247715102802 0.17552005355496702 0.244789922916686
v 0.1435489539510102 0.18309878612128916 0.244789922916686
v 0.14780262782190556 0.16459345953083448 0.244789922916686
v 0.14870840519678996 0.18219300602120448 0.244789922916686
v 0.15113909626805012 0.17733162975685768 0.244789922916686
v 0.1535697664547162 0.16035123120064332 0.244789922916686
v 0.16266190789153568 0.17005103859449622 0.244789922916686
v 0.15932544779922874 0.18552943424915936 0.244789922916686
v 0.1705501777886984 0.17157594662658492 0.244789922916686
v 0.179355663552909 0.17976228055168142 0.244789922916686
v 0.17358852492009836 0.1636876794307498 0.244789922916686
v 0.18784013848729164 0.18249107008351228 0.244789922916686
v 0.19998205301691808 0.17521047892115082 0.244789922916686
v 0.19148614272306108 0.17187403202452112 0.244789922916686
v 0.18784013848729164 0.17399514552287832 0.244789922916686
v 0.22879485457742856 0.13911714308137002 0.244789922916686
v 0.24245024222280788 0.12455596875750774 0.244789922916686
v 0.19421489663220248 0.15063996190718426 0.244789922916686
v 0.26762847490702324 0.10907756243503042 0.244789922916686
v 0.180869101164852 0.17339894005660982 0.244789922916686
v 0.17814029086730664 0.16398578083040726 0.244789922916686
v 0.16145802799804132 0.14639773491046986 0.244789922916686
v 0.26762847490702324 0.09604132814669942 0.26029798916598612
v 0.25913248838439796 0.09604132814669942 0.244789922916686
v 0.26762847490702324 0.09604132814669942 0.244789922916686
v 0.25913248838439796 0.09604132814669942 0.26029798916598612
v 0.21575855730743364 0.11241403866814914 0.244789922916686
v 0.21575855730743364 0.11241403866814914 0.26029798916598612
v 0.20514155177514932 0.11241403866814914 0.244789922916686
v 0.20514155177514932 0.11241403866814914 0.26029798916598612
v 0.19633602946289912 0.1193965004278409 0.244789922916686
v 0.19633602946289912 0.1193965004278409 0.26029798916598612
v 0.18602857956060404 0.12455596875750774 0.244789922916686
v 0.18602857956060404 0.12455596875750774 0.26029798916598612
v 0.16145802799804132 0.13062122652159668 0.244789922916686
v 0.16145802799804132 0.13062122652159668 0.26029798916598612
v 0.14931609258382084 0.12910779839105058 0.244789922916686
v 0.14931609258382084 0.12910779839105058 0.26029798916598612
v 0.14931609258382084 0.12910779839105058 0.26029798916598612
v 0.1444661886141927 0.14761307830981818 0.244789922916686
v 0.14931609258382084 0.12910779839105058 0.244789922916686
v 0.1444661886141927 0.14761307830981818 0.26029798916598612
v 0.13748370444575198 0.15124763860739632 0.244789922916686
v 0.13748370444575198 0.15124763860739632 0.26029798916598612
v 0.13141845911741256 0.16186468733420168 0.244789922916686
v 0.13141845911741256 0.16186468733420168 0.26029798916598612
v 0.13141845911741256 0.16186468733420168 0.26029798916598612
v 0.14841031520893644 0.15519176287097646 0.244789922916686
v 0.13141845911741256 0.16186468733420168 0.244789922916686
v 0.14841031520893644 0.15519176287097646 0.26029798916598612
v 0.14841031520893644 0.15519176287097646 0.26029798916598612
v 0.14780262782190556 0.16459345953083448 0.244789922916686
v 0.14841031520893644 0.15519176287097646 0.244789922916686
v 0.14780262782190556 0.16459345953083448 0.26029798916598612
v 0.14021247715102802 0.17552005355496702 0.244789922916686
v 0.14021247715102802 0.17552005355496702 0.26029798916598612
v 0.1435489539510102 0.18309878612128916 0.244789922916686
v 0.1435489539510102 0.18309878612128916 0.26029798916598612
v 0.1435489539510102 0.18309878612128916 0.26029798916598612
v 0.14870840519678996 0.18219300602120448 0.244789922916686
v 0.1435489539510102 0.18309878612128916 0.244789922916686
v 0.14870840519678996 0.18219300602120448 0.26029798916598612
v 0.15113909626805012 0.17733162975685768 0.244789922916686
v 0.15113909626805012 0.17733162975685768 0.26029798916598612
v 0.1535697664547162 0.16035123120064332 0.244789922916686
v 0.1535697664547162 0.16035123120064332 0.26029798916598612
v 0.16145802799804132 0.14639773491046986 0.244789922916686
v 0.16145802799804132 0.14639773491046986 0.26029798916598612
v 0.16145802799804132 0.14639773491046986 0.26029798916598612
v 0.17358852492009836 0.1636876794307498 0.244789922916686
v 0.16145802799804132 0.14639773491046986 0.244789922916686
v 0.17358852492009836 0.1636876794307498 0.26029798916598612
v 0.1705501777886984 0.17157594662658492 0.244789922916686
v 0.1705501777886984 0.17157594662658492 0.26029798916598612
v 0.1705501777886984 0.17157594662658492 0.26029798916598612
v 0.16266190789153568 0.17005103859449622 0.244789922916686
v 0.1705501777886984 0.17157594662658492 0.244789922916686
v 0.16266190789153568 0.17005103859449622 0.26029798916598612
v 0.16266190789153568 0.17005103859449622 0.26029798916598612
v 0.15932544779922874 0.18552943424915936 0.244789922916686
v 0.16266190789153568 0.17005103859449622 0.244789922916686
v 0.15932544779922874 0.18552943424915936 0.26029798916598612
v 0.15932544779922874 0.18552943424915936 0.26029798916598612
v 0.179355663552909 0.17976228055168142 0.244789922916686
v 0.15932544779922874 0.18552943424915936 0.244789922916686
v 0.179355663552909 0.17976228055168142 0.26029798916598612
v 0.18784013848729164 0.18249107008351228 0.244789922916686
v 0.18784013848729164 0.18249107008351228 0.26029798916598612
v 0.19998205301691808 0.17521047892115082 0.244789922916686
v 0.19998205301691808 0.17521047892115082 0.26029798916598612
v 0.19998205301691808 0.17521047892115082 0.26029798916598612
v 0.19148614272306108 0.17187403202452112 0.244789922916686
v 0.19998205301691808 0.17521047892115082 0.244789922916686
v 0.19148614272306108 0.17187403202452112 0.26029798916598612
v 0.18784013848729164 0.17399514552287832 0.244789922916686
v 0.18784013848729164 0.17399514552287832 0.26029798916598612
v 0.180869101164852 0.17339894005660982 0.244789922916686
v 0.180869101164852 0.17339894005660982 0.26029798916598612
v 0.180869101164852 0.17339894005660982 0.26029798916598612
v 0.17814029086730664 0.16398578083040726 0.244789922916686
v 0.180869101164852 0.17339894005660982 0.244789922916686
v 0.17814029086730664 0.16398578083040726 0.26029798916598612
v 0.17814029086730664 0.16398578083040726 0.26029798916598612
v 0.19421489663220248 0.15063996190718426 0.244789922916686
v 0.17814029086730664 0.16398578083040726 0.244789922916686
v 0.19421489663220248 0.15063996190718426 0.26029798916598612
v 0.22879485457742856 0.13911714308137002 0.244789922916686
v 0.22879485457742856 0.13911714308137002 0.26029798916598612
v 0.24245024222280788 0.12455596875750774 0.244789922916686
v 0.24245024222280788 0.12455596875750774 0.26029798916598612
v 0.26762847490702324 0.10907756243503042 0.244789922916686
v 0.26762847490702324 0.10907756243503042 0.26029798916598612
v 0.27157259732484816 0.10362000204004352 0.244789922916686
v 0.27157259732484816 0.10362000204004352 0.26029798916598612
v 0.27157259732484816 0.10362000204004352 0.26029798916598612
v 0.26762847490702324 0.09604132814669942 0.244789922916686
v 0.27157259732484816 0.10362000204004352 0.244789922916686
v 0.26762847490702324 0.09604132814669942 0.26029798916598612
# 166 vertices

vn 0 0 1
vn 0 0 1
vn 0 0 1
vn 0 0 1
vn 0 0 1
vn 0 0 1
vn 0 0 1
vn 0 0 1
vn 0 0 1
vn 0 0 1
vn 0 0 1
vn 0 0 1
vn 0 0 1
vn 0 0 1
vn 0 0 1
vn 0 0 1
vn 0 0 1
vn 0 0 1
vn 0 0 1
vn 0 0 1
vn 0 0 1
vn 0 0 1
vn 0 0 1
vn 0 0 1
vn 0 0 1
vn 0 0 1
vn 0 0 1
vn 0 0 1
vn 0 0 1
vn 0 0 1
vn 0 0 1
vn 0 0 1
vn 0 0 1
vn 0 0 1
vn 0 0 1
vn 0 0 -1
vn 0 0 -1
vn 0 0 -1
vn 0 0 -1
vn 0 0 -1
vn 0 0 -1
vn 0 0 -1
vn 0 0 -1
vn 0 0 -1
vn 0 0 -1
vn 0 0 -1
vn 0 0 -1
vn 0 0 -1
vn 0 0 -1
vn 0 0 -1
vn 0 0 -1
vn 0 0 -1
vn 0 0 -1
vn 0 0 -1
vn 0 0 -1
vn 0 0 -1
vn 0 0 -1
vn 0 0 -1
vn 0 0 -1
vn 0 0 -1
vn 0 0 -1
vn 0 0 -1
vn 0 0 -1
vn 0 0 -1
vn 0 0 -1
vn 0 0 -1
vn 0 0 -1
vn 0 0 -1
vn 0 0 -1
vn 0 0 -1
vn 0 -1 0
vn -0.27476012706756592 -0.9615128636360168 0
vn 0 -1 0
vn -0.27476012706756592 -0.9615128636360168 0
vn -0.27476012706756592 -0.9615128636360168 0
vn -0.27476012706756592 -0.9615128636360168 0
vn -0.478951632976532 -0.87784129381179808 0
vn -0.478951632976532 -0.87784129381179808 0
vn -0.706340491771698 -0.70787233114242552 0
vn -0.706340491771698 -0.70787233114242552 0
vn -0.49985256791114808 -0.86611050367355344 0
vn -0.49985256791114808 -0.86611050367355344 0
vn -0.09212403744459152 -0.99574756622314448 0
vn -0.09212403744459152 -0.99574756622314448 0
vn 0.19159881770610808 -0.98147332668304448 0
vn 0.19159881770610808 -0.98147332668304448 0
vn -0.98628622293472288 -0.16504408419132232 0
vn -0.8909816145896912 -0.45403945446014408 0
vn -0.98628622293472288 -0.16504408419132232 0
vn -0.8909816145896912 -0.45403945446014408 0
vn -0.83308869600296016 -0.55313944816589352 0
vn -0.83308869600296016 -0.55313944816589352 0
vn -0.93945467472076416 -0.3426731526851654 0
vn -0.93945467472076416 -0.3426731526851654 0
vn 0.52389556169509888 0.85178250074386592 0
vn 0.52389556169509888 0.85178250074386592 0
vn 0.52389556169509888 0.85178250074386592 0
vn 0.52389556169509888 0.85178250074386592 0
vn -0.9991495013237 -0.04123473167419433 0
vn -0.97605240345001216 -0.21753585338592528 0
vn -0.9991495013237 -0.04123473167419433 0
vn -0.97605240345001216 -0.21753585338592528 0
vn -0.9981069564819336 -0.06150217354297638 0
vn -0.9981069564819336 -0.06150217354297638 0
vn -0.96269017457962032 0.2706061005592346 0
vn -0.96269017457962032 0.2706061005592346 0
vn 0.2651149034500122 0.96421688795089728 0
vn 0.75941044092178352 0.65061187744140624 0
vn 0.2651149034500122 0.96421688795089728 0
vn 0.75941044092178352 0.65061187744140624 0
vn 0.98066532611846928 0.19569253921508788 0
vn 0.98066532611846928 0.19569253921508788 0
vn 0.97714835405349728 0.21255849301815032 0
vn 0.97714835405349728 0.21255849301815032 0
vn 0.94059967994689936 0.33951768279075624 0
vn 0.94059967994689936 0.33951768279075624 0
vn -0.9126150608062744 0.40881994366645816 0
vn -0.9969463348388672 0.07809000462293625 0
vn -0.9126150608062744 0.40881994366645816 0
vn -0.9969463348388672 0.07809000462293625 0
vn -0.97106486558914192 -0.23881590366363524 0
vn -0.97106486558914192 -0.23881590366363524 0
vn 0.28977301716804504 -0.9570953845977784 0
vn 0.28977301716804504 -0.9570953845977784 0
vn 0.28977301716804504 -0.9570953845977784 0
vn 0.28977301716804504 -0.9570953845977784 0
vn -0.99066120386123664 -0.13634660840034484 0
vn -0.99066120386123664 -0.13634660840034484 0
vn -0.99066120386123664 -0.13634660840034484 0
vn -0.99066120386123664 -0.13634660840034484 0
vn 0.41107553243637088 0.91160136461257936 0
vn -0.02413973212242126 0.99970859289169312 0
vn 0.41107553243637088 0.91160136461257936 0
vn -0.02413973212242126 0.99970859289169312 0
vn 0.17724016308784484 0.9841676354408264 0
vn 0.17724016308784484 0.9841676354408264 0
vn 0.68456858396530152 0.72894841432571408 0
vn 0.68456858396530152 0.72894841432571408 0
vn 0.5238947868347168 -0.85178303718566896 0
vn -0.11895542591810226 -0.99289959669113152 0
vn 0.5238947868347168 -0.85178303718566896 0
vn -0.11895542591810226 -0.99289959669113152 0
vn -0.33163625001907348 -0.94340735673904416 0
vn -0.33163625001907348 -0.94340735673904416 0
vn 0.13276296854019166 -0.99114781618118288 0
vn 0.13276296854019166 -0.99114781618118288 0
vn 0.9832977056503296 -0.18200460076332092 0
vn 0.9832977056503296 -0.18200460076332092 0
vn 0.9832977056503296 -0.18200460076332092 0
vn 0.9832977056503296 -0.18200460076332092 0
vn 0.79269331693649296 0.60962063074111936 0
vn 0.65656810998916624 0.7542666792869568 0
vn 0.79269331693649296 0.60962063074111936 0
vn 0.65656810998916624 0.7542666792869568 0
vn 0.70813643932342528 0.70607560873031616 0
vn 0.70813643932342528 0.70607560873031616 0
vn 0.78750902414321904 0.61630308628082272 0
vn 0.78750902414321904 0.61630308628082272 0
vn 0.82385116815567024 0.56680625677108768 0
vn 0.82385116815567024 0.56680625677108768 0
vn 0.90799480676651008 0.41898149251937864 0
vn 0.90799480676651008 0.41898149251937864 0
vn 0.94898003339767456 -0.31533628702163696 0
vn 0.94898003339767456 -0.31533628702163696 0
vn 0.94898003339767456 -0.31533628702163696 0
vn 0.94898003339767456 -0.31533628702163696 0
# 166 vertex normals

g node_id805
usemtl mat_37852863
s 1
f 1//1 2//2 3//3
f 4//4 5//5 6//6
f 4//4 7//7 5//5
f 8//8 9//9 10//10
f 9//9 11//11 12//12
f 9//9 13//13 11//11
f 14//14 15//15 16//16
f 14//14 17//17 15//15
f 17//17 18//18 19//19
f 20//20 21//21 22//22
f 20//20 23//23 21//21
f 24//24 23//23 20//20
f 23//23 25//25 26//26
f 25//25 27//27 28//28
f 29//29 30//30 31//31
f 29//29 32//32 30//30
f 29//29 1//1 32//32
f 29//29 2//2 1//1
f 2//2 7//7 4//4
f 7//7 9//9 8//8
f 13//13 17//17 14//14
f 13//13 18//18 17//17
f 23//23 27//27 25//25
f 23//23 33//33 27//27
f 24//24 33//33 23//23
f 34//34 2//2 29//29
f 34//34 7//7 2//2
f 7//7 13//13 9//9
f 13//13 35//35 18//18
f 35//35 33//33 24//24
f 7//7 35//35 13//13
f 34//34 35//35 7//7
f 34//34 33//33 35//35
f 36//36 37//37 38//38
f 39//39 40//40 41//41
f 40//40 42//42 41//41
f 43//43 44//44 45//45
f 46//46 47//47 44//44
f 47//47 48//48 44//44
f 49//49 50//50 51//51
f 50//50 52//52 51//51
f 53//53 54//54 52//52
f 55//55 56//56 57//57
f 56//56 58//58 57//57
f 57//57 58//58 59//59
f 60//60 61//61 58//58
f 62//62 63//63 61//61
f 64//64 65//65 66//66
f 65//65 67//67 66//66
f 67//67 38//38 66//66
f 38//38 37//37 66//66
f 41//41 42//42 37//37
f 45//45 44//44 42//42
f 51//51 52//52 48//48
f 52//52 54//54 48//48
f 61//61 63//63 58//58
f 63//63 68//68 58//58
f 58//58 68//68 59//59
f 66//66 37//37 69//69
f 37//37 42//42 69//69
f 44//44 48//48 42//42
f 54//54 70//70 48//48
f 59//59 68//68 70//70
f 48//48 70//70 42//42
f 42//42 70//70 69//69
f 70//70 68//68 69//69
f 71//71 72//72 73//73
f 71//71 74//74 72//72
f 74//74 75//75 72//72
f 74//74 76//76 75//75
f 76//76 77//77 75//75
f 76//76 78//78 77//77
f 78//78 79//79 77//77
f 78//78 80//80 79//79
f 80//80 81//81 79//79
f 80//80 82//82 81//81
f 82//82 83//83 81//81
f 82//82 84//84 83//83
f 84//84 85//85 83//83
f 84//84 86//86 85//85
f 87//87 88//88 89//89
f 87//87 90//90 88//88
f 90//90 91//91 88//88
f 90//90 92//92 91//91
f 92//92 93//93 91//91
f 92//92 94//94 93//93
f 95//95 96//96 97//97
f 95//95 98//98 96//96
f 99//99 100//100 101//101
f 99//99 102//102 100//100
f 102//102 103//103 100//100
f 102//102 104//104 103//103
f 104//104 105//105 103//103
f 104//104 106//106 105//105
f 107//107 108//108 109//109
f 107//107 110//110 108//108
f 110//110 111//111 108//108
f 110//110 112//112 111//111
f 112//112 113//113 111//111
f 112//112 114//114 113//113
f 114//114 115//115 113//113
f 114//114 116//116 115//115
f 117//117 118//118 119//119
f 117//117 120//120 118//118
f 120//120 121//121 118//118
f 120//120 122//122 121//121
f 123//123 124//124 125//125
f 123//123 126//126 124//124
f 127//127 128//128 129//129
f 127//127 130//130 128//128
f 131//131 132//132 133//133
f 131//131 134//134 132//132
f 134//134 135//135 132//132
f 134//134 136//136 135//135
f 136//136 137//137 135//135
f 136//136 138//138 137//137
f 139//139 140//140 141//141
f 139//139 142//142 140//140
f 142//142 143//143 140//140
f 142//142 144//144 143//143
f 144//144 145//145 143//143
f 144//144 146//146 145//145
f 147//147 148//148 149//149
f 147//147 150//150 148//148
f 151//151 152//152 153//153
f 151//151 154//154 152//152
f 154//154 155//155 152//152
f 154//154 156//156 155//155
f 156//156 157//157 155//155
f 156//156 158//158 157//157
f 158//158 159//159 157//157
f 158//158 160//160 159//159
f 160//160 161//161 159//159
f 160//160 162//162 161//161
f 163//163 164//164 165//165
f 163//163 166//166 164//164
#136 polygons

