# Aspose.3D Wavefront OBJ Exporter
# Copyright 2004-2023 Aspose Pty Ltd.
# File created: 05/31/2023 20:48:33

mtllib material.lib

#
# object node_id779
#

v 0.18888985043137472 0.18610462473497356 0.26321006353856132
v 0.18767507168925236 0.20187314186903336 0.26321006353856132
v 0.17675384134054184 0.19035618545162604 0.26321006353856132
v 0.20799339630017856 0.17367088294434802 0.26321006353856132
v 0.22890763396024648 0.21976165670434476 0.26321006353856132
v 0.22830027479003244 0.2255259081721306 0.26321006353856132
v 0.2261801828698624 0.22400179090796792 0.26321006353856132
v 0.23557729223250168 0.22127434600963312 0.26321006353856132
v 0.25771773273431324 0.2227985008657658 0.26321006353856132
v 0.2483206604935486 0.22400179090796792 0.26321006353856132
v 0.23255188461754672 0.22097641518908116 0.26321006353856132
v 0.23679203070682788 0.2049099657886244 0.26321006353856132
v 0.25711035405938544 0.21703425228967 0.26321006353856132
v 0.2558955784631846 0.19004676883839976 0.26321006353856132
v 0.28743314846153356 0.17427825152360934 0.26321006353856132
v 0.2807635078064392 0.18549727513242788 0.26321006353856132
v 0.29712817659768476 0.1682160896578322 0.26321006353856132
v 0.29652081742747072 0.1745876688597581 0.26321006353856132
v 0.300772427254985 0.16397601328800904 0.26321006353856132
v 0.31895919117403348 0.15911710369173338 0.26321006353856132
v 0.31107483217851108 0.16397601328800904 0.26321006353856132
v 0.326843570303454 0.14608748833178264 0.26321006353856132
v 0.3322985127520184 0.14395599182525176 0.26321006353856132
v 0.34564922004938124 0.13881058804236846 0.26321006353856132
v 0.34231435190382608 0.14395599182525176 0.26321006353856132
v 0.34351767949140168 0.13638114336514562 0.26321006353856132
v 0.32957105914489704 0.13667909442752756 0.26321006353856132
v 0.33321525443397748 0.13547583330222546 0.26321006353856132
v 0.31320635260259256 0.14789811713269296 0.26321006353856132
v 0.29379336633708664 0.14669485600739086 0.26321006353856132
v 0.3031904555658278 0.1424433054116534 0.26321006353856132
v 0.25073866992886196 0.14426541133016802 0.26321006353856132
v 0.28015612850232708 0.14093061610636504 0.26321006353856132
v 0.2304203465763044 0.14336006367527788 0.26321006353856132
v 0.2443784331777794 0.12849689275026322 0.26321006353856132
v 0.19434471234434668 0.15578236630173036 0.26321006353856132
v 0.21527043639328312 0.14760015739524102 0.26321006353856132
v 0.19495211178235696 0.16700137093383328 0.26321006353856132
v 0.18342346186173808 0.16397601328800904 0.26321006353856132
v 0.24406903053213624 0.1964183287021488 0.26321006353856132
v 0.32078132908636992 0.14456333347564998 0.26321006353856132
v 0.17675384134054184 0.19035618545162604 0.24770986501215892
v 0.18767507168925236 0.20187314186903336 0.24770986501215892
v 0.18888985043137472 0.18610462473497356 0.24770986501215892
v 0.20799339630017856 0.17367088294434802 0.24770986501215892
v 0.22890763396024648 0.21976165670434476 0.24770986501215892
v 0.2261801828698624 0.22400179090796792 0.24770986501215892
v 0.22830027479003244 0.2255259081721306 0.24770986501215892
v 0.2483206604935486 0.22400179090796792 0.24770986501215892
v 0.25771773273431324 0.2227985008657658 0.24770986501215892
v 0.23557729223250168 0.22127434600963312 0.24770986501215892
v 0.23255188461754672 0.22097641518908116 0.24770986501215892
v 0.25711035405938544 0.21703425228967 0.24770986501215892
v 0.23679203070682788 0.2049099657886244 0.24770986501215892
v 0.2807635078064392 0.18549727513242788 0.24770986501215892
v 0.28743314846153356 0.17427825152360934 0.24770986501215892
v 0.2558955784631846 0.19004676883839976 0.24770986501215892
v 0.29652081742747072 0.1745876688597581 0.24770986501215892
v 0.29712817659768476 0.1682160896578322 0.24770986501215892
v 0.31107483217851108 0.16397601328800904 0.24770986501215892
v 0.31895919117403348 0.15911710369173338 0.24770986501215892
v 0.300772427254985 0.16397601328800904 0.24770986501215892
v 0.326843570303454 0.14608748833178264 0.24770986501215892
v 0.34231435190382608 0.14395599182525176 0.24770986501215892
v 0.34564922004938124 0.13881058804236846 0.24770986501215892
v 0.3322985127520184 0.14395599182525176 0.24770986501215892
v 0.34351767949140168 0.13638114336514562 0.24770986501215892
v 0.33321525443397748 0.13547583330222546 0.24770986501215892
v 0.32957105914489704 0.13667909442752756 0.24770986501215892
v 0.3031904555658278 0.1424433054116534 0.24770986501215892
v 0.29379336633708664 0.14669485600739086 0.24770986501215892
v 0.31320635260259256 0.14789811713269296 0.24770986501215892
v 0.28015612850232708 0.14093061610636504 0.24770986501215892
v 0.25073866992886196 0.14426541133016802 0.24770986501215892
v 0.2443784331777794 0.12849689275026322 0.24770986501215892
v 0.2304203465763044 0.14336006367527788 0.24770986501215892
v 0.21527043639328312 0.14760015739524102 0.24770986501215892
v 0.19434471234434668 0.15578236630173036 0.24770986501215892
v 0.18342346186173808 0.16397601328800904 0.24770986501215892
v 0.19495211178235696 0.16700137093383328 0.24770986501215892
v 0.24406903053213624 0.1964183287021488 0.24770986501215892
v 0.32078132908636992 0.14456333347564998 0.24770986501215892
v 0.19495211178235696 0.16700137093383328 0.26321006353856132
v 0.20799339630017856 0.17367088294434802 0.24770986501215892
v 0.19495211178235696 0.16700137093383328 0.24770986501215892
v 0.20799339630017856 0.17367088294434802 0.26321006353856132
v 0.20799339630017856 0.17367088294434802 0.26321006353856132
v 0.18888985043137472 0.18610462473497356 0.24770986501215892
v 0.20799339630017856 0.17367088294434802 0.24770986501215892
v 0.18888985043137472 0.18610462473497356 0.26321006353856132
v 0.17675384134054184 0.19035618545162604 0.24770986501215892
v 0.17675384134054184 0.19035618545162604 0.26321006353856132
v 0.17675384134054184 0.19035618545162604 0.26321006353856132
v 0.18767507168925236 0.20187314186903336 0.24770986501215892
v 0.17675384134054184 0.19035618545162604 0.24770986501215892
v 0.18767507168925236 0.20187314186903336 0.26321006353856132
v 0.22890763396024648 0.21976165670434476 0.24770986501215892
v 0.22890763396024648 0.21976165670434476 0.26321006353856132
v 0.22890763396024648 0.21976165670434476 0.26321006353856132
v 0.2261801828698624 0.22400179090796792 0.24770986501215892
v 0.22890763396024648 0.21976165670434476 0.24770986501215892
v 0.2261801828698624 0.22400179090796792 0.26321006353856132
v 0.2261801828698624 0.22400179090796792 0.26321006353856132
v 0.22830027479003244 0.2255259081721306 0.24770986501215892
v 0.2261801828698624 0.22400179090796792 0.24770986501215892
v 0.22830027479003244 0.2255259081721306 0.26321006353856132
v 0.22830027479003244 0.2255259081721306 0.26321006353856132
v 0.23255188461754672 0.22097641518908116 0.24770986501215892
v 0.22830027479003244 0.2255259081721306 0.24770986501215892
v 0.23255188461754672 0.22097641518908116 0.26321006353856132
v 0.23557729223250168 0.22127434600963312 0.24770986501215892
v 0.23557729223250168 0.22127434600963312 0.26321006353856132
v 0.2483206604935486 0.22400179090796792 0.24770986501215892
v 0.2483206604935486 0.22400179090796792 0.26321006353856132
v 0.25771773273431324 0.2227985008657658 0.24770986501215892
v 0.25771773273431324 0.2227985008657658 0.26321006353856132
v 0.25771773273431324 0.2227985008657658 0.26321006353856132
v 0.25711035405938544 0.21703425228967 0.24770986501215892
v 0.25771773273431324 0.2227985008657658 0.24770986501215892
v 0.25711035405938544 0.21703425228967 0.26321006353856132
v 0.23679203070682788 0.2049099657886244 0.24770986501215892
v 0.23679203070682788 0.2049099657886244 0.26321006353856132
v 0.23679203070682788 0.2049099657886244 0.26321006353856132
v 0.24406903053213624 0.1964183287021488 0.24770986501215892
v 0.23679203070682788 0.2049099657886244 0.24770986501215892
v 0.24406903053213624 0.1964183287021488 0.26321006353856132
v 0.2558955784631846 0.19004676883839976 0.24770986501215892
v 0.2558955784631846 0.19004676883839976 0.26321006353856132
v 0.2807635078064392 0.18549727513242788 0.24770986501215892
v 0.2807635078064392 0.18549727513242788 0.26321006353856132
v 0.28743314846153356 0.17427825152360934 0.24770986501215892
v 0.28743314846153356 0.17427825152360934 0.26321006353856132
v 0.28743314846153356 0.17427825152360934 0.26321006353856132
v 0.29652081742747072 0.1745876688597581 0.24770986501215892
v 0.28743314846153356 0.17427825152360934 0.24770986501215892
v 0.29652081742747072 0.1745876688597581 0.26321006353856132
v 0.29652081742747072 0.1745876688597581 0.26321006353856132
v 0.29712817659768476 0.1682160896578322 0.24770986501215892
v 0.29652081742747072 0.1745876688597581 0.24770986501215892
v 0.29712817659768476 0.1682160896578322 0.26321006353856132
v 0.300772427254985 0.16397601328800904 0.24770986501215892
v 0.300772427254985 0.16397601328800904 0.26321006353856132
v 0.31107483217851108 0.16397601328800904 0.24770986501215892
v 0.31107483217851108 0.16397601328800904 0.26321006353856132
v 0.31895919117403348 0.15911710369173338 0.24770986501215892
v 0.31895919117403348 0.15911710369173338 0.26321006353856132
v 0.326843570303454 0.14608748833178264 0.24770986501215892
v 0.326843570303454 0.14608748833178264 0.26321006353856132
v 0.3322985127520184 0.14395599182525176 0.24770986501215892
v 0.3322985127520184 0.14395599182525176 0.26321006353856132
v 0.34231435190382608 0.14395599182525176 0.24770986501215892
v 0.34231435190382608 0.14395599182525176 0.26321006353856132
v 0.34564922004938124 0.13881058804236846 0.24770986501215892
v 0.34564922004938124 0.13881058804236846 0.26321006353856132
v 0.34564922004938124 0.13881058804236846 0.26321006353856132
v 0.34351767949140168 0.13638114336514562 0.24770986501215892
v 0.34564922004938124 0.13881058804236846 0.24770986501215892
v 0.34351767949140168 0.13638114336514562 0.26321006353856132
v 0.33321525443397748 0.13547583330222546 0.24770986501215892
v 0.33321525443397748 0.13547583330222546 0.26321006353856132
v 0.32957105914489704 0.13667909442752756 0.24770986501215892
v 0.32957105914489704 0.13667909442752756 0.26321006353856132
v 0.32078132908636992 0.14456333347564998 0.24770986501215892
v 0.32078132908636992 0.14456333347564998 0.26321006353856132
v 0.31320635260259256 0.14789811713269296 0.24770986501215892
v 0.31320635260259256 0.14789811713269296 0.26321006353856132
v 0.3031904555658278 0.1424433054116534 0.24770986501215892
v 0.3031904555658278 0.1424433054116534 0.26321006353856132
v 0.29379336633708664 0.14669485600739086 0.24770986501215892
v 0.29379336633708664 0.14669485600739086 0.26321006353856132
v 0.28015612850232708 0.14093061610636504 0.24770986501215892
v 0.28015612850232708 0.14093061610636504 0.26321006353856132
v 0.25073866992886196 0.14426541133016802 0.24770986501215892
v 0.25073866992886196 0.14426541133016802 0.26321006353856132
v 0.25073866992886196 0.14426541133016802 0.26321006353856132
v 0.2443784331777794 0.12849689275026322 0.24770986501215892
v 0.25073866992886196 0.14426541133016802 0.24770986501215892
v 0.2443784331777794 0.12849689275026322 0.26321006353856132
v 0.2443784331777794 0.12849689275026322 0.26321006353856132
v 0.2304203465763044 0.14336006367527788 0.24770986501215892
v 0.2443784331777794 0.12849689275026322 0.24770986501215892
v 0.2304203465763044 0.14336006367527788 0.26321006353856132
v 0.21527043639328312 0.14760015739524102 0.24770986501215892
v 0.21527043639328312 0.14760015739524102 0.26321006353856132
v 0.19434471234434668 0.15578236630173036 0.24770986501215892
v 0.19434471234434668 0.15578236630173036 0.26321006353856132
v 0.18342346186173808 0.16397601328800904 0.24770986501215892
v 0.18342346186173808 0.16397601328800904 0.26321006353856132
v 0.18342346186173808 0.16397601328800904 0.26321006353856132
v 0.18342346186173808 0.16397601328800904 0.24770986501215892
# 190 vertices

vn 0 0 1
vn 0 0 1
vn 0 0 1
vn 0 0 1
vn 0 0 1
vn 0 0 1
vn 0 0 1
vn 0 0 1
vn 0 0 1
vn 0 0 1
vn 0 0 1
vn 0 0 1
vn 0 0 1
vn 0 0 1
vn 0 0 1
vn 0 0 1
vn 0 0 1
vn 0 0 1
vn 0 0 1
vn 0 0 1
vn 0 0 1
vn 0 0 1
vn 0 0 1
vn 0 0 1
vn 0 0 1
vn 0 0 1
vn 0 0 1
vn 0 0 1
vn 0 0 1
vn 0 0 1
vn 0 0 1
vn 0 0 1
vn 0 0 1
vn 0 0 1
vn 0 0 1
vn 0 0 1
vn 0 0 1
vn 0 0 1
vn 0 0 1
vn 0 0 1
vn 0 0 1
vn 0 0 -1
vn 0 0 -1
vn 0 0 -1
vn 0 0 -1
vn 0 0 -1
vn 0 0 -1
vn 0 0 -1
vn 0 0 -1
vn 0 0 -1
vn 0 0 -1
vn 0 0 -1
vn 0 0 -1
vn 0 0 -1
vn 0 0 -1
vn 0 0 -1
vn 0 0 -1
vn 0 0 -1
vn 0 0 -1
vn 0 0 -1
vn 0 0 -1
vn 0 0 -1
vn 0 0 -1
vn 0 0 -1
vn 0 0 -1
vn 0 0 -1
vn 0 0 -1
vn 0 0 -1
vn 0 0 -1
vn 0 0 -1
vn 0 0 -1
vn 0 0 -1
vn 0 0 -1
vn 0 0 -1
vn 0 0 -1
vn 0 0 -1
vn 0 0 -1
vn 0 0 -1
vn 0 0 -1
vn 0 0 -1
vn 0 0 -1
vn 0 0 -1
vn -0.55346280336380008 0.83287388086318976 0
vn -0.66491264104843136 0.746921181678772 0
vn -0.55346280336380008 0.83287388086318976 0
vn -0.66491264104843136 0.746921181678772 0
vn -0.74972170591354368 -0.66175329685211184 0
vn -0.65022867918014528 -0.7597386240959168 0
vn -0.74972170591354368 -0.66175329685211184 0
vn -0.65022867918014528 -0.7597386240959168 0
vn -0.52063584327697752 -0.85377889871597296 0
vn -0.52063584327697752 -0.85377889871597296 0
vn -0.87814599275588992 0.47839269042015072 0
vn -0.77294391393661504 0.63447439670562744 0
vn -0.87814599275588992 0.47839269042015072 0
vn -0.77294391393661504 0.63447439670562744 0
vn -0.60264199972152712 0.79801166057586672 0
vn -0.60264199972152712 0.79801166057586672 0
vn -0.93800222873687744 -0.3466292917728424 0
vn -0.93800222873687744 -0.3466292917728424 0
vn -0.93800222873687744 -0.3466292917728424 0
vn -0.93800222873687744 -0.3466292917728424 0
vn -0.78119826316833504 0.6242830753326416 0
vn -0.78119826316833504 0.6242830753326416 0
vn -0.78119826316833504 0.6242830753326416 0
vn -0.78119826316833504 0.6242830753326416 0
vn 0.88105338811874384 0.47301688790321352 0
vn 0.54865813255310056 0.83604687452316288 0
vn 0.88105338811874384 0.47301688790321352 0
vn 0.54865813255310056 0.83604687452316288 0
vn -0.2616558074951172 0.96516126394271856 0
vn -0.2616558074951172 0.96516126394271856 0
vn -0.07251589000225067 0.99736726284027104 0
vn -0.07251589000225067 0.99736726284027104 0
vn 0.2175530642271042 0.97604846954345696 0
vn 0.2175530642271042 0.97604846954345696 0
vn 0.9981728196144104 -0.06042355298995972 0
vn 0.93867391347885136 -0.34480619430541992 0
vn 0.9981728196144104 -0.06042355298995972 0
vn 0.93867391347885136 -0.34480619430541992 0
vn 0.72039532661437992 -0.6935637593269348 0
vn 0.72039532661437992 -0.6935637593269348 0
vn 0.89716738462448128 0.44169074296951296 0
vn 0.81422227621078496 0.58055329322814944 0
vn 0.89716738462448128 0.44169074296951296 0
vn 0.81422227621078496 0.58055329322814944 0
vn 0.5213527083396912 0.853341281414032 0
vn 0.5213527083396912 0.853341281414032 0
vn 0.77098196744918816 0.63685697317123416 0
vn 0.77098196744918816 0.63685697317123416 0
vn 0.94633007049560544 0.32320180535316468 0
vn 0.94633007049560544 0.32320180535316468 0
vn -0.05916256085038185 0.9982483983039856 0
vn -0.05916256085038185 0.9982483983039856 0
vn -0.05916256085038185 0.9982483983039856 0
vn -0.05916256085038185 0.9982483983039856 0
vn 0.99850392341613776 0.054680485278368 0
vn 0.97136658430099488 0.2375856786966324 0
vn 0.99850392341613776 0.054680485278368 0
vn 0.97136658430099488 0.2375856786966324 0
vn 0.62430077791213992 0.7811841368675232 0
vn 0.62430077791213992 0.7811841368675232 0
vn 0.44239038228988648 0.89682263135910032 0
vn 0.44239038228988648 0.89682263135910032 0
vn 0.8688363432884216 0.49509942531585696 0
vn 0.8688363432884216 0.49509942531585696 0
vn 0.82590138912200928 0.56381458044052128 0
vn 0.82590138912200928 0.56381458044052128 0
vn 0.31166628003120424 0.95019167661666864 0
vn 0.31166628003120424 0.95019167661666864 0
vn 0.68726509809494016 0.72640669345855712 0
vn 0.68726509809494016 0.72640669345855712 0
vn 0.9371453523635864 0.34893926978111268 0
vn 0.9371453523635864 0.34893926978111268 0
vn 0.89297747611999504 -0.45010146498680112 0
vn 0.6616007089614868 -0.74985641241073616 0
vn 0.89297747611999504 -0.45010146498680112 0
vn 0.6616007089614868 -0.74985641241073616 0
vn -0.19817127287387848 -0.98016744852066048 0
vn -0.19817127287387848 -0.98016744852066048 0
vn -0.7100229859352112 -0.70417851209640504 0
vn -0.7100229859352112 -0.70417851209640504 0
vn -0.74679583311080928 -0.66505336761474608 0
vn -0.74679583311080928 -0.66505336761474608 0
vn 0.07295083254575729 -0.99733555316925056 0
vn 0.07295083254575729 -0.99733555316925056 0
vn 0.06414854526519775 -0.9979403614997864 0
vn 0.06414854526519775 -0.9979403614997864 0
vn -0.0217263177037239 -0.99976396560668944 0
vn -0.0217263177037239 -0.99976396560668944 0
vn 0.24394023418426512 -0.9697903394699096 0
vn 0.24394023418426512 -0.9697903394699096 0
vn -0.19359111785888672 -0.98108232021331792 0
vn -0.19359111785888672 -0.98108232021331792 0
vn 0.97418755292892464 -0.22574019432067872 0
vn 0.97418755292892464 -0.22574019432067872 0
vn 0.97418755292892464 -0.22574019432067872 0
vn 0.97418755292892464 -0.22574019432067872 0
vn -0.8800861835479736 -0.47481405735015872 0
vn -0.72573834657669072 -0.6879708766937256 0
vn -0.8800861835479736 -0.47481405735015872 0
vn -0.72573834657669072 -0.6879708766937256 0
vn -0.50319194793701168 -0.86417472362518304 0
vn -0.50319194793701168 -0.86417472362518304 0
vn -0.69608837366104128 -0.71795612573623656 0
vn -0.69608837366104128 -0.71795612573623656 0
vn -0.79396307468414304 -0.60796606540679928 0
vn -0.79396307468414304 -0.60796606540679928 0
vn -0.41549259424209592 0.90959656238555904 0
vn -0.41549259424209592 0.90959656238555904 0
# 190 vertex normals

g node_id779
usemtl mat_15100037
s 1
f 1//1 2//2 3//3
f 4//4 2//2 1//1
f 4//4 5//5 2//2
f 5//5 6//6 7//7
f 8//8 9//9 10//10
f 11//11 9//9 8//8
f 9//9 12//12 13//13
f 14//14 15//15 16//16
f 15//15 17//17 18//18
f 14//14 17//17 15//15
f 19//19 20//20 21//21
f 19//19 22//22 20//20
f 23//23 24//24 25//25
f 23//23 26//26 24//24
f 26//26 27//27 28//28
f 29//29 30//30 31//31
f 30//30 32//32 33//33
f 29//29 32//32 30//30
f 32//32 34//34 35//35
f 34//34 36//36 37//37
f 36//36 38//38 39//39
f 5//5 11//11 6//6
f 4//4 11//11 5//5
f 11//11 12//12 9//9
f 14//14 19//19 17//17
f 40//40 19//19 14//14
f 22//22 26//26 23//23
f 22//22 27//27 26//26
f 29//29 34//34 32//32
f 29//29 36//36 34//34
f 29//29 38//38 36//36
f 4//4 12//12 11//11
f 4//4 40//40 12//12
f 40//40 22//22 19//19
f 22//22 41//41 27//27
f 29//29 4//4 38//38
f 29//29 40//40 4//4
f 40//40 41//41 22//22
f 40//40 29//29 41//41
f 42//42 43//43 44//44
f 44//44 43//43 45//45
f 43//43 46//46 45//45
f 47//47 48//48 46//46
f 49//49 50//50 51//51
f 51//51 50//50 52//52
f 53//53 54//54 50//50
f 55//55 56//56 57//57
f 58//58 59//59 56//56
f 56//56 59//59 57//57
f 60//60 61//61 62//62
f 61//61 63//63 62//62
f 64//64 65//65 66//66
f 65//65 67//67 66//66
f 68//68 69//69 67//67
f 70//70 71//71 72//72
f 73//73 74//74 71//71
f 71//71 74//74 72//72
f 75//75 76//76 74//74
f 77//77 78//78 76//76
f 79//79 80//80 78//78
f 48//48 52//52 46//46
f 46//46 52//52 45//45
f 50//50 54//54 52//52
f 59//59 62//62 57//57
f 57//57 62//62 81//81
f 66//66 67//67 63//63
f 67//67 69//69 63//63
f 74//74 76//76 72//72
f 76//76 78//78 72//72
f 78//78 80//80 72//72
f 52//52 54//54 45//45
f 54//54 81//81 45//45
f 62//62 63//63 81//81
f 69//69 82//82 63//63
f 80//80 45//45 72//72
f 45//45 81//81 72//72
f 63//63 82//82 81//81
f 82//82 72//72 81//81
f 83//83 84//84 85//85
f 83//83 86//86 84//84
f 87//87 88//88 89//89
f 87//87 90//90 88//88
f 90//90 91//91 88//88
f 90//90 92//92 91//91
f 93//93 94//94 95//95
f 93//93 96//96 94//94
f 96//96 97//97 94//94
f 96//96 98//98 97//97
f 99//99 100//100 101//101
f 99//99 102//102 100//100
f 103//103 104//104 105//105
f 103//103 106//106 104//104
f 107//107 108//108 109//109
f 107//107 110//110 108//108
f 110//110 111//111 108//108
f 110//110 112//112 111//111
f 112//112 113//113 111//111
f 112//112 114//114 113//113
f 114//114 115//115 113//113
f 114//114 116//116 115//115
f 117//117 118//118 119//119
f 117//117 120//120 118//118
f 120//120 121//121 118//118
f 120//120 122//122 121//121
f 123//123 124//124 125//125
f 123//123 126//126 124//124
f 126//126 127//127 124//124
f 126//126 128//128 127//127
f 128//128 129//129 127//127
f 128//128 130//130 129//129
f 130//130 131//131 129//129
f 130//130 132//132 131//131
f 133//133 134//134 135//135
f 133//133 136//136 134//134
f 137//137 138//138 139//139
f 137//137 140//140 138//138
f 140//140 141//141 138//138
f 140//140 142//142 141//141
f 142//142 143//143 141//141
f 142//142 144//144 143//143
f 144//144 145//145 143//143
f 144//144 146//146 145//145
f 146//146 147//147 145//145
f 146//146 148//148 147//147
f 148//148 149//149 147//147
f 148//148 150//150 149//149
f 150//150 151//151 149//149
f 150//150 152//152 151//151
f 152//152 153//153 151//151
f 152//152 154//154 153//153
f 155//155 156//156 157//157
f 155//155 158//158 156//156
f 158//158 159//159 156//156
f 158//158 160//160 159//159
f 160//160 161//161 159//159
f 160//160 162//162 161//161
f 162//162 163//163 161//161
f 162//162 164//164 163//163
f 164//164 165//165 163//163
f 164//164 166//166 165//165
f 166//166 167//167 165//165
f 166//166 168//168 167//167
f 168//168 169//169 167//167
f 168//168 170//170 169//169
f 170//170 171//171 169//169
f 170//170 172//172 171//171
f 172//172 173//173 171//171
f 172//172 174//174 173//173
f 175//175 176//176 177//177
f 175//175 178//178 176//176
f 179//179 180//180 181//181
f 179//179 182//182 180//180
f 182//182 183//183 180//180
f 182//182 184//184 183//183
f 184//184 185//185 183//183
f 184//184 186//186 185//185
f 186//186 187//187 185//185
f 186//186 188//188 187//187
f 189//189 85//85 190//190
f 189//189 83//83 85//85
#160 polygons

