# Aspose.3D Wavefront OBJ Exporter
# Copyright 2004-2023 Aspose Pty Ltd.
# File created: 05/31/2023 20:48:52

mtllib material.lib

#
# object node_id792
#

v 0.33718050146471292 0.10728155702719544 0.2639400956318686
v 0.3305353065449408 0.08988115060097879 0.2639400956318686
v 0.33694685152717564 0.09125691963108374 0.2639400956318686
v 0.31817936423753568 0.09125691963108374 0.2639400956318686
v 0.29871961621399372 0.08988115060097879 0.2639400956318686
v 0.31085059982030096 0.08552888222038746 0.2639400956318686
v 0.28108557237518596 0.08758820912214782 0.2639400956318686
v 0.2868136271074788 0.08712960908843026 0.2639400956318686
v 0.2801683741251668 0.09079832995438208 0.2639400956318686
v 0.27628335308803488 0.10315425597847322 0.2639400956318686
v 0.26963813462939524 0.093999785416637 0.2639400956318686
v 0.26987176887435416 0.11162518808805886 0.2639400956318686
v 0.25315488572145604 0.1388722783922729 0.2639400956318686
v 0.24743550584647388 0.1246819548225655 0.2639400956318686
v 0.27971843965729204 0.13657932828259534 0.2639400956318686
v 0.29528451032324948 0.14139018633988832 0.2639400956318686
v 0.2879557274672352 0.1407066284682329 0.2639400956318686
v 0.30146246215546496 0.1370379283163129 0.2639400956318686
v 0.31634500383042764 0.14207373385452782 0.2639400956318686
v 0.31199273705761644 0.14344951324164868 0.2639400956318686
v 0.32847600715053636 0.13131855454942664 0.2639400956318686
v 0.34129913791570976 0.13223572527198336 0.2639400956318686
v 0.33168606214628492 0.13200211242108206 0.2639400956318686
v 0.34152411299593632 0.12376479359394004 0.2639400956318686
v 0.35045362319104312 0.12009608222191948 0.2639400956318686
v 0.34885287662854216 0.1246819548225655 0.2639400956318686
v 0.34565142430424388 0.11711958438183124 0.2639400956318686
v 0.35274661018517284 0.10750652392752222 0.2639400956318686
v 0.35159577925945264 0.1114002019840984 0.2639400956318686
v 0.33694685152717564 0.09125691963108374 0.24849158552428984
v 0.3305353065449408 0.08988115060097879 0.24849158552428984
v 0.33718050146471292 0.10728155702719544 0.24849158552428984
v 0.31817936423753568 0.09125691963108374 0.24849158552428984
v 0.31085059982030096 0.08552888222038746 0.24849158552428984
v 0.29871961621399372 0.08988115060097879 0.24849158552428984
v 0.2868136271074788 0.08712960908843026 0.24849158552428984
v 0.28108557237518596 0.08758820912214782 0.24849158552428984
v 0.26963813462939524 0.093999785416637 0.24849158552428984
v 0.27628335308803488 0.10315425597847322 0.24849158552428984
v 0.2801683741251668 0.09079832995438208 0.24849158552428984
v 0.24743550584647388 0.1246819548225655 0.24849158552428984
v 0.25315488572145604 0.1388722783922729 0.24849158552428984
v 0.26987176887435416 0.11162518808805886 0.24849158552428984
v 0.2879557274672352 0.1407066284682329 0.24849158552428984
v 0.29528451032324948 0.14139018633988832 0.24849158552428984
v 0.27971843965729204 0.13657932828259534 0.24849158552428984
v 0.30146246215546496 0.1370379283163129 0.24849158552428984
v 0.31199273705761644 0.14344951324164868 0.24849158552428984
v 0.31634500383042764 0.14207373385452782 0.24849158552428984
v 0.33168606214628492 0.13200211242108206 0.24849158552428984
v 0.34129913791570976 0.13223572527198336 0.24849158552428984
v 0.32847600715053636 0.13131855454942664 0.24849158552428984
v 0.34152411299593632 0.12376479359394004 0.24849158552428984
v 0.34885287662854216 0.1246819548225655 0.24849158552428984
v 0.35045362319104312 0.12009608222191948 0.24849158552428984
v 0.35159577925945264 0.1114002019840984 0.24849158552428984
v 0.35274661018517284 0.10750652392752222 0.24849158552428984
v 0.34565142430424388 0.11711958438183124 0.24849158552428984
v 0.33718050146471292 0.10728155702719544 0.2639400956318686
v 0.33694685152717564 0.09125691963108374 0.24849158552428984
v 0.33718050146471292 0.10728155702719544 0.24849158552428984
v 0.33694685152717564 0.09125691963108374 0.2639400956318686
v 0.33694685152717564 0.09125691963108374 0.2639400956318686
v 0.3305353065449408 0.08988115060097879 0.24849158552428984
v 0.33694685152717564 0.09125691963108374 0.24849158552428984
v 0.3305353065449408 0.08988115060097879 0.2639400956318686
v 0.31817936423753568 0.09125691963108374 0.24849158552428984
v 0.31817936423753568 0.09125691963108374 0.2639400956318686
v 0.31085059982030096 0.08552888222038746 0.24849158552428984
v 0.31085059982030096 0.08552888222038746 0.2639400956318686
v 0.29871961621399372 0.08988115060097879 0.24849158552428984
v 0.29871961621399372 0.08988115060097879 0.2639400956318686
v 0.2868136271074788 0.08712960908843026 0.24849158552428984
v 0.2868136271074788 0.08712960908843026 0.2639400956318686
v 0.28108557237518596 0.08758820912214782 0.24849158552428984
v 0.28108557237518596 0.08758820912214782 0.2639400956318686
v 0.28108557237518596 0.08758820912214782 0.2639400956318686
v 0.2801683741251668 0.09079832995438208 0.24849158552428984
v 0.28108557237518596 0.08758820912214782 0.24849158552428984
v 0.2801683741251668 0.09079832995438208 0.2639400956318686
v 0.26963813462939524 0.093999785416637 0.24849158552428984
v 0.26963813462939524 0.093999785416637 0.2639400956318686
v 0.26963813462939524 0.093999785416637 0.2639400956318686
v 0.27628335308803488 0.10315425597847322 0.24849158552428984
v 0.26963813462939524 0.093999785416637 0.24849158552428984
v 0.27628335308803488 0.10315425597847322 0.2639400956318686
v 0.27628335308803488 0.10315425597847322 0.2639400956318686
v 0.26987176887435416 0.11162518808805886 0.24849158552428984
v 0.27628335308803488 0.10315425597847322 0.24849158552428984
v 0.26987176887435416 0.11162518808805886 0.2639400956318686
v 0.24743550584647388 0.1246819548225655 0.24849158552428984
v 0.24743550584647388 0.1246819548225655 0.2639400956318686
v 0.24743550584647388 0.1246819548225655 0.2639400956318686
v 0.25315488572145604 0.1388722783922729 0.24849158552428984
v 0.24743550584647388 0.1246819548225655 0.24849158552428984
v 0.25315488572145604 0.1388722783922729 0.2639400956318686
v 0.25315488572145604 0.1388722783922729 0.2639400956318686
v 0.27971843965729204 0.13657932828259534 0.24849158552428984
v 0.25315488572145604 0.1388722783922729 0.24849158552428984
v 0.27971843965729204 0.13657932828259534 0.2639400956318686
v 0.2879557274672352 0.1407066284682329 0.24849158552428984
v 0.2879557274672352 0.1407066284682329 0.2639400956318686
v 0.29528451032324948 0.14139018633988832 0.24849158552428984
v 0.29528451032324948 0.14139018633988832 0.2639400956318686
v 0.30146246215546496 0.1370379283163129 0.24849158552428984
v 0.30146246215546496 0.1370379283163129 0.2639400956318686
v 0.30146246215546496 0.1370379283163129 0.2639400956318686
v 0.31199273705761644 0.14344951324164868 0.24849158552428984
v 0.30146246215546496 0.1370379283163129 0.24849158552428984
v 0.31199273705761644 0.14344951324164868 0.2639400956318686
v 0.31634500383042764 0.14207373385452782 0.24849158552428984
v 0.31634500383042764 0.14207373385452782 0.2639400956318686
v 0.32847600715053636 0.13131855454942664 0.24849158552428984
v 0.32847600715053636 0.13131855454942664 0.2639400956318686
v 0.33168606214628492 0.13200211242108206 0.24849158552428984
v 0.33168606214628492 0.13200211242108206 0.2639400956318686
v 0.34129913791570976 0.13223572527198336 0.24849158552428984
v 0.34129913791570976 0.13223572527198336 0.2639400956318686
v 0.34129913791570976 0.13223572527198336 0.2639400956318686
v 0.34152411299593632 0.12376479359394004 0.24849158552428984
v 0.34129913791570976 0.13223572527198336 0.24849158552428984
v 0.34152411299593632 0.12376479359394004 0.2639400956318686
v 0.34152411299593632 0.12376479359394004 0.2639400956318686
v 0.34885287662854216 0.1246819548225655 0.24849158552428984
v 0.34152411299593632 0.12376479359394004 0.24849158552428984
v 0.34885287662854216 0.1246819548225655 0.2639400956318686
v 0.34885287662854216 0.1246819548225655 0.2639400956318686
v 0.35045362319104312 0.12009608222191948 0.24849158552428984
v 0.34885287662854216 0.1246819548225655 0.24849158552428984
v 0.35045362319104312 0.12009608222191948 0.2639400956318686
v 0.35045362319104312 0.12009608222191948 0.2639400956318686
v 0.34565142430424388 0.11711958438183124 0.24849158552428984
v 0.35045362319104312 0.12009608222191948 0.24849158552428984
v 0.34565142430424388 0.11711958438183124 0.2639400956318686
v 0.34565142430424388 0.11711958438183124 0.2639400956318686
v 0.35159577925945264 0.1114002019840984 0.24849158552428984
v 0.34565142430424388 0.11711958438183124 0.24849158552428984
v 0.35159577925945264 0.1114002019840984 0.2639400956318686
v 0.35274661018517284 0.10750652392752222 0.24849158552428984
v 0.35274661018517284 0.10750652392752222 0.2639400956318686
v 0.35274661018517284 0.10750652392752222 0.2639400956318686
v 0.33718050146471292 0.10728155702719544 0.24849158552428984
v 0.35274661018517284 0.10750652392752222 0.24849158552428984
v 0.33718050146471292 0.10728155702719544 0.2639400956318686
# 144 vertices

vn 0 0 1
vn 0 0 1
vn 0 0 1
vn 0 0 1
vn 0 0 1
vn 0 0 1
vn 0 0 1
vn 0 0 1
vn 0 0 1
vn 0 0 1
vn 0 0 1
vn 0 0 1
vn 0 0 1
vn 0 0 1
vn 0 0 1
vn 0 0 1
vn 0 0 1
vn 0 0 1
vn 0 0 1
vn 0 0 1
vn 0 0 1
vn 0 0 1
vn 0 0 1
vn 0 0 1
vn 0 0 1
vn 0 0 1
vn 0 0 1
vn 0 0 1
vn 0 0 1
vn 0 0 -1
vn 0 0 -1
vn 0 0 -1
vn 0 0 -1
vn 0 0 -1
vn 0 0 -1
vn 0 0 -1
vn 0 0 -1
vn 0 0 -1
vn 0 0 -1
vn 0 0 -1
vn 0 0 -1
vn 0 0 -1
vn 0 0 -1
vn 0 0 -1
vn 0 0 -1
vn 0 0 -1
vn 0 0 -1
vn 0 0 -1
vn 0 0 -1
vn 0 0 -1
vn 0 0 -1
vn 0 0 -1
vn 0 0 -1
vn 0 0 -1
vn 0 0 -1
vn 0 0 -1
vn 0 0 -1
vn 0 0 -1
vn 0.99996787309646608 -0.00801908690482378 0
vn 0.99996787309646608 -0.00801908690482378 0
vn 0.99996787309646608 -0.00801908690482378 0
vn 0.99996787309646608 -0.00801908690482378 0
vn 0.36346101760864256 -0.93160939216613776 0
vn 0.0910467803478241 -0.99584662914276128 0
vn 0.36346101760864256 -0.93160939216613776 0
vn 0.0910467803478241 -0.99584662914276128 0
vn 0.45818570256233216 -0.88885653018951424 0
vn 0.45818570256233216 -0.88885653018951424 0
vn 0.28067684173583984 -0.95980232954025264 0
vn 0.28067684173583984 -0.95980232954025264 0
vn -0.1062018796801567 -0.99434459209442144 0
vn -0.1062018796801567 -0.99434459209442144 0
vn 0.13289639353752136 -0.99112999439239504 0
vn 0.13289639353752136 -0.99112999439239504 0
vn -0.14405019581317902 -0.98957037925720208 0
vn -0.14405019581317902 -0.98957037925720208 0
vn -0.98787677288055424 -0.15524010360240936 0
vn -0.87960708141326912 -0.47570103406906128 0
vn -0.98787677288055424 -0.15524010360240936 0
vn -0.87960708141326912 -0.47570103406906128 0
vn -0.48378384113311768 -0.87518757581710816 0
vn -0.48378384113311768 -0.87518757581710816 0
vn -0.92871963977813728 0.37078288197517392 0
vn -0.92871963977813728 0.37078288197517392 0
vn -0.92871963977813728 0.37078288197517392 0
vn -0.92871963977813728 0.37078288197517392 0
vn -0.92320120334625248 -0.3843170404434204 0
vn -0.84958565235137936 -0.52745068073272704 0
vn -0.92320120334625248 -0.3843170404434204 0
vn -0.84958565235137936 -0.52745068073272704 0
vn -0.72677826881408688 -0.686872124671936 0
vn -0.72677826881408688 -0.686872124671936 0
vn -0.97630017995834352 0.21642090380191804 0
vn -0.97630017995834352 0.21642090380191804 0
vn -0.97630017995834352 0.21642090380191804 0
vn -0.97630017995834352 0.21642090380191804 0
vn 0.1550477147102356 0.98790705204010016 0
vn -0.32879376411437988 0.9444018006324768 0
vn 0.1550477147102356 0.98790705204010016 0
vn -0.32879376411437988 0.9444018006324768 0
vn -0.4616040885448456 0.88708609342575072 0
vn -0.4616040885448456 0.88708609342575072 0
vn 0.4359372854232788 0.89997708797454832 0
vn 0.4359372854232788 0.89997708797454832 0
vn 0.788231372833252 0.61537897586822512 0
vn 0.788231372833252 0.61537897586822512 0
vn -0.74207419157028192 0.67031776905059816 0
vn -0.21479557454586028 0.97665905952453616 0
vn -0.74207419157028192 0.67031776905059816 0
vn -0.21479557454586028 0.97665905952453616 0
vn 0.71775537729263304 0.69629538059234616 0
vn 0.71775537729263304 0.69629538059234616 0
vn 0.4322518706321716 0.9017529487609864 0
vn 0.4322518706321716 0.9017529487609864 0
vn -0.20907720923423768 0.97789913415908816 0
vn -0.20907720923423768 0.97789913415908816 0
vn -0.04414208978414535 0.999025285243988 0
vn -0.04414208978414535 0.999025285243988 0
vn 0.9998933672904968 0.01460557617247104 0
vn 0.9998933672904968 0.01460557617247104 0
vn 0.9998933672904968 0.01460557617247104 0
vn 0.9998933672904968 0.01460557617247104 0
vn -0.22186797857284544 0.97507673501968384 0
vn -0.22186797857284544 0.97507673501968384 0
vn -0.22186797857284544 0.97507673501968384 0
vn -0.22186797857284544 0.97507673501968384 0
vn 0.98206579685211184 0.1885385811328888 0
vn 0.98206579685211184 0.1885385811328888 0
vn 0.98206579685211184 0.1885385811328888 0
vn 0.98206579685211184 0.1885385811328888 0
vn 0.74798148870468144 -0.66371965408325192 0
vn 0.74798148870468144 -0.66371965408325192 0
vn 0.74798148870468144 -0.66371965408325192 0
vn 0.74798148870468144 -0.66371965408325192 0
vn 0.8681679368019104 0.49627065658569336 0
vn 0.94843345880508416 0.316976398229599 0
vn 0.8681679368019104 0.49627065658569336 0
vn 0.94843345880508416 0.316976398229599 0
vn 0.98704355955123904 0.16045266389846802 0
vn 0.98704355955123904 0.16045266389846802 0
vn 0.02626818232238292 -0.9996549487113952 0
vn 0.02626818232238292 -0.9996549487113952 0
vn 0.02626818232238292 -0.9996549487113952 0
vn 0.02626818232238292 -0.9996549487113952 0
# 144 vertex normals

g node_id792
usemtl mat_50169531
s 1
f 1//1 2//2 3//3
f 1//1 4//4 2//2
f 4//4 5//5 6//6
f 5//5 7//7 8//8
f 9//9 10//10 11//11
f 12//12 13//13 14//14
f 10//10 13//13 12//12
f 15//15 16//16 17//17
f 15//15 18//18 16//16
f 18//18 19//19 20//20
f 21//21 22//22 23//23
f 21//21 24//24 22//22
f 24//24 25//25 26//26
f 27//27 28//28 29//29
f 27//27 1//1 28//28
f 1//1 5//5 4//4
f 5//5 9//9 7//7
f 10//10 15//15 13//13
f 10//10 18//18 15//15
f 18//18 21//21 19//19
f 24//24 27//27 25//25
f 24//24 1//1 27//27
f 1//1 9//9 5//5
f 9//9 18//18 10//10
f 18//18 24//24 21//21
f 24//24 9//9 1//1
f 24//24 18//18 9//9
f 30//30 31//31 32//32
f 31//31 33//33 32//32
f 34//34 35//35 33//33
f 36//36 37//37 35//35
f 38//38 39//39 40//40
f 41//41 42//42 43//43
f 43//43 42//42 39//39
f 44//44 45//45 46//46
f 45//45 47//47 46//46
f 48//48 49//49 47//47
f 50//50 51//51 52//52
f 51//51 53//53 52//52
f 54//54 55//55 53//53
f 56//56 57//57 58//58
f 57//57 32//32 58//58
f 33//33 35//35 32//32
f 37//37 40//40 35//35
f 42//42 46//46 39//39
f 46//46 47//47 39//39
f 49//49 52//52 47//47
f 55//55 58//58 53//53
f 58//58 32//32 53//53
f 35//35 40//40 32//32
f 39//39 47//47 40//40
f 52//52 53//53 47//47
f 32//32 40//40 53//53
f 40//40 47//47 53//53
f 59//59 60//60 61//61
f 59//59 62//62 60//60
f 63//63 64//64 65//65
f 63//63 66//66 64//64
f 66//66 67//67 64//64
f 66//66 68//68 67//67
f 68//68 69//69 67//67
f 68//68 70//70 69//69
f 70//70 71//71 69//69
f 70//70 72//72 71//71
f 72//72 73//73 71//71
f 72//72 74//74 73//73
f 74//74 75//75 73//73
f 74//74 76//76 75//75
f 77//77 78//78 79//79
f 77//77 80//80 78//78
f 80//80 81//81 78//78
f 80//80 82//82 81//81
f 83//83 84//84 85//85
f 83//83 86//86 84//84
f 87//87 88//88 89//89
f 87//87 90//90 88//88
f 90//90 91//91 88//88
f 90//90 92//92 91//91
f 93//93 94//94 95//95
f 93//93 96//96 94//94
f 97//97 98//98 99//99
f 97//97 100//100 98//98
f 100//100 101//101 98//98
f 100//100 102//102 101//101
f 102//102 103//103 101//101
f 102//102 104//104 103//103
f 104//104 105//105 103//103
f 104//104 106//106 105//105
f 107//107 108//108 109//109
f 107//107 110//110 108//108
f 110//110 111//111 108//108
f 110//110 112//112 111//111
f 112//112 113//113 111//111
f 112//112 114//114 113//113
f 114//114 115//115 113//113
f 114//114 116//116 115//115
f 116//116 117//117 115//115
f 116//116 118//118 117//117
f 119//119 120//120 121//121
f 119//119 122//122 120//120
f 123//123 124//124 125//125
f 123//123 126//126 124//124
f 127//127 128//128 129//129
f 127//127 130//130 128//128
f 131//131 132//132 133//133
f 131//131 134//134 132//132
f 135//135 136//136 137//137
f 135//135 138//138 136//136
f 138//138 139//139 136//136
f 138//138 140//140 139//139
f 141//141 142//142 143//143
f 141//141 144//144 142//142
#112 polygons

