# Aspose.3D Wavefront OBJ Exporter
# Copyright 2004-2023 Aspose Pty Ltd.
# File created: 05/31/2023 19:16:16

mtllib material.lib

#
# object node_id450
#

v -0.50755892025105264 0.17657116055488586 0.26170559822109896
v -0.48832965211248336 0.18708097412547176 0.26170559822109896
v -0.51053285941564528 0.18013685590665318 0.26170559822109896
v -0.48417216939924536 0.22076784075661936 0.26170559822109896
v -0.49527377103958424 0.21007072022817752 0.26170559822109896
v -0.46137709780462584 0.22592159885295436 0.26170559822109896
v -0.47782730004445288 0.23999714554587824 0.26170559822109896
v -0.47763249516083264 0.2332552665502874 0.26170559822109896
v -0.4722764408982636 0.24058893484715328 0.26170559822109896
v -0.4689130448208272 0.23979490392451908 0.26170559822109896
v -0.451863632227912 0.24316581344567112 0.26170559822109896
v -0.45741441494690296 0.253675627016257 0.26170559822109896
v -0.45959426848131504 0.24772780052648356 0.26170559822109896
v -0.45106958129165704 0.24217701587747344 0.26170559822109896
v -0.41718047585776664 0.25703909993171692 0.26170559822109896
v -0.40211615214048456 0.24554796616686048 0.26170559822109896
v -0.3755606974653056 0.2225582014786358 0.26170559822109896
v -0.3826920831407792 0.23088064755911476 0.26170559822109896
v -0.39002569518308096 0.21720212760622004 0.26170559822109896
v -0.38903695651805584 0.20273708910234944 0.26170559822109896
v -0.38329136891544472 0.18767274663982648 0.26170559822109896
v -0.38566595392314176 0.19540343999053532 0.26170559822109896
v -0.38784587885664704 0.17914805833845548 0.26170559822109896
v -0.42847688137610472 0.18767274663982648 0.26170559822109896
v -0.45939954103051416 0.1942123648290064 0.26170559822109896
v -0.44115901645937256 0.1894556302876822 0.26170559822109896
v -0.46494279265360472 0.19401761736849464 0.26170559822109896
v -0.47743027281648856 0.18350780379790876 0.26170559822109896
v -0.45781147737160336 0.23167469886586644 0.26170559822109896
v -0.4619764941976048 0.22493280188428956 0.26170559822109896
v -0.51053285941564528 0.18013685590665318 0.24650732578250212
v -0.48832965211248336 0.18708097412547176 0.24650732578250212
v -0.50755892025105264 0.17657116055488586 0.24650732578250212
v -0.49527377103958424 0.21007072022817752 0.24650732578250212
v -0.48417216939924536 0.22076784075661936 0.24650732578250212
v -0.47763249516083264 0.2332552665502874 0.24650732578250212
v -0.47782730004445288 0.23999714554587824 0.24650732578250212
v -0.46137709780462584 0.22592159885295436 0.24650732578250212
v -0.4722764408982636 0.24058893484715328 0.24650732578250212
v -0.4689130448208272 0.23979490392451908 0.24650732578250212
v -0.45959426848131504 0.24772780052648356 0.24650732578250212
v -0.45741441494690296 0.253675627016257 0.24650732578250212
v -0.451863632227912 0.24316581344567112 0.24650732578250212
v -0.45106958129165704 0.24217701587747344 0.24650732578250212
v -0.41718047585776664 0.25703909993171692 0.24650732578250212
v -0.3826920831407792 0.23088064755911476 0.24650732578250212
v -0.3755606974653056 0.2225582014786358 0.24650732578250212
v -0.40211615214048456 0.24554796616686048 0.24650732578250212
v -0.39002569518308096 0.21720212760622004 0.24650732578250212
v -0.38566595392314176 0.19540343999053532 0.24650732578250212
v -0.38329136891544472 0.18767274663982648 0.24650732578250212
v -0.38903695651805584 0.20273708910234944 0.24650732578250212
v -0.38784587885664704 0.17914805833845548 0.24650732578250212
v -0.44115901645937256 0.1894556302876822 0.24650732578250212
v -0.45939954103051416 0.1942123648290064 0.24650732578250212
v -0.42847688137610472 0.18767274663982648 0.24650732578250212
v -0.47743027281648856 0.18350780379790876 0.24650732578250212
v -0.46494279265360472 0.19401761736849464 0.24650732578250212
v -0.45781147737160336 0.23167469886586644 0.24650732578250212
v -0.4619764941976048 0.22493280188428956 0.24650732578250212
v -0.51053285941564528 0.18013685590665318 0.26170559822109896
v -0.48832965211248336 0.18708097412547176 0.24650732578250212
v -0.51053285941564528 0.18013685590665318 0.24650732578250212
v -0.48832965211248336 0.18708097412547176 0.26170559822109896
v -0.48832965211248336 0.18708097412547176 0.26170559822109896
v -0.49527377103958424 0.21007072022817752 0.24650732578250212
v -0.48832965211248336 0.18708097412547176 0.24650732578250212
v -0.49527377103958424 0.21007072022817752 0.26170559822109896
v -0.49527377103958424 0.21007072022817752 0.26170559822109896
v -0.48417216939924536 0.22076784075661936 0.24650732578250212
v -0.49527377103958424 0.21007072022817752 0.24650732578250212
v -0.48417216939924536 0.22076784075661936 0.26170559822109896
v -0.4619764941976048 0.22493280188428956 0.24650732578250212
v -0.4619764941976048 0.22493280188428956 0.26170559822109896
v -0.46137709780462584 0.22592159885295436 0.24650732578250212
v -0.46137709780462584 0.22592159885295436 0.26170559822109896
v -0.46137709780462584 0.22592159885295436 0.26170559822109896
v -0.47763249516083264 0.2332552665502874 0.24650732578250212
v -0.46137709780462584 0.22592159885295436 0.24650732578250212
v -0.47763249516083264 0.2332552665502874 0.26170559822109896
v -0.47763249516083264 0.2332552665502874 0.26170559822109896
v -0.47782730004445288 0.23999714554587824 0.24650732578250212
v -0.47763249516083264 0.2332552665502874 0.24650732578250212
v -0.47782730004445288 0.23999714554587824 0.26170559822109896
v -0.47782730004445288 0.23999714554587824 0.26170559822109896
v -0.4722764408982636 0.24058893484715328 0.24650732578250212
v -0.47782730004445288 0.23999714554587824 0.24650732578250212
v -0.4722764408982636 0.24058893484715328 0.26170559822109896
v -0.4689130448208272 0.23979490392451908 0.24650732578250212
v -0.4689130448208272 0.23979490392451908 0.26170559822109896
v -0.45781147737160336 0.23167469886586644 0.24650732578250212
v -0.45781147737160336 0.23167469886586644 0.26170559822109896
v -0.45781147737160336 0.23167469886586644 0.26170559822109896
v -0.45106958129165704 0.24217701587747344 0.24650732578250212
v -0.45781147737160336 0.23167469886586644 0.24650732578250212
v -0.45106958129165704 0.24217701587747344 0.26170559822109896
v -0.45106958129165704 0.24217701587747344 0.26170559822109896
v -0.451863632227912 0.24316581344567112 0.24650732578250212
v -0.45106958129165704 0.24217701587747344 0.24650732578250212
v -0.451863632227912 0.24316581344567112 0.26170559822109896
v -0.45959426848131504 0.24772780052648356 0.24650732578250212
v -0.45959426848131504 0.24772780052648356 0.26170559822109896
v -0.45959426848131504 0.24772780052648356 0.26170559822109896
v -0.45741441494690296 0.253675627016257 0.24650732578250212
v -0.45959426848131504 0.24772780052648356 0.24650732578250212
v -0.45741441494690296 0.253675627016257 0.26170559822109896
v -0.45741441494690296 0.253675627016257 0.26170559822109896
v -0.41718047585776664 0.25703909993171692 0.24650732578250212
v -0.45741441494690296 0.253675627016257 0.24650732578250212
v -0.41718047585776664 0.25703909993171692 0.26170559822109896
v -0.40211615214048456 0.24554796616686048 0.24650732578250212
v -0.40211615214048456 0.24554796616686048 0.26170559822109896
v -0.3826920831407792 0.23088064755911476 0.24650732578250212
v -0.3826920831407792 0.23088064755911476 0.26170559822109896
v -0.3755606974653056 0.2225582014786358 0.24650732578250212
v -0.3755606974653056 0.2225582014786358 0.26170559822109896
v -0.3755606974653056 0.2225582014786358 0.26170559822109896
v -0.39002569518308096 0.21720212760622004 0.24650732578250212
v -0.3755606974653056 0.2225582014786358 0.24650732578250212
v -0.39002569518308096 0.21720212760622004 0.26170559822109896
v -0.39002569518308096 0.21720212760622004 0.26170559822109896
v -0.38903695651805584 0.20273708910234944 0.24650732578250212
v -0.39002569518308096 0.21720212760622004 0.24650732578250212
v -0.38903695651805584 0.20273708910234944 0.26170559822109896
v -0.38566595392314176 0.19540343999053532 0.24650732578250212
v -0.38566595392314176 0.19540343999053532 0.26170559822109896
v -0.38329136891544472 0.18767274663982648 0.24650732578250212
v -0.38329136891544472 0.18767274663982648 0.26170559822109896
v -0.38784587885664704 0.17914805833845548 0.24650732578250212
v -0.38784587885664704 0.17914805833845548 0.26170559822109896
v -0.38784587885664704 0.17914805833845548 0.26170559822109896
v -0.42847688137610472 0.18767274663982648 0.24650732578250212
v -0.38784587885664704 0.17914805833845548 0.24650732578250212
v -0.42847688137610472 0.18767274663982648 0.26170559822109896
v -0.44115901645937256 0.1894556302876822 0.24650732578250212
v -0.44115901645937256 0.1894556302876822 0.26170559822109896
v -0.45939954103051416 0.1942123648290064 0.24650732578250212
v -0.45939954103051416 0.1942123648290064 0.26170559822109896
v -0.46494279265360472 0.19401761736849464 0.24650732578250212
v -0.46494279265360472 0.19401761736849464 0.26170559822109896
v -0.47743027281648856 0.18350780379790876 0.24650732578250212
v -0.47743027281648856 0.18350780379790876 0.26170559822109896
v -0.50755892025105264 0.17657116055488586 0.24650732578250212
v -0.50755892025105264 0.17657116055488586 0.26170559822109896
v -0.50755892025105264 0.17657116055488586 0.26170559822109896
v -0.51053285941564528 0.18013685590665318 0.24650732578250212
v -0.50755892025105264 0.17657116055488586 0.24650732578250212
v -0.51053285941564528 0.18013685590665318 0.26170559822109896
# 148 vertices

vn 0 0 1
vn 0 0 1
vn 0 0 1
vn 0 0 1
vn 0 0 1
vn 0 0 1
vn 0 0 1
vn 0 0 1
vn 0 0 1
vn 0 0 1
vn 0 0 1
vn 0 0 1
vn 0 0 1
vn 0 0 1
vn 0 0 1
vn 0 0 1
vn 0 0 1
vn 0 0 1
vn 0 0 1
vn 0 0 1
vn 0 0 1
vn 0 0 1
vn 0 0 1
vn 0 0 1
vn 0 0 1
vn 0 0 1
vn 0 0 1
vn 0 0 1
vn 0 0 1
vn 0 0 1
vn 0 0 -1
vn 0 0 -1
vn 0 0 -1
vn 0 0 -1
vn 0 0 -1
vn 0 0 -1
vn 0 0 -1
vn 0 0 -1
vn 0 0 -1
vn 0 0 -1
vn 0 0 -1
vn 0 0 -1
vn 0 0 -1
vn 0 0 -1
vn 0 0 -1
vn 0 0 -1
vn 0 0 -1
vn 0 0 -1
vn 0 0 -1
vn 0 0 -1
vn 0 0 -1
vn 0 0 -1
vn 0 0 -1
vn 0 0 -1
vn 0 0 -1
vn 0 0 -1
vn 0 0 -1
vn 0 0 -1
vn 0 0 -1
vn 0 0 -1
vn -0.46455159783363344 0.88554608821868896 0
vn -0.46455159783363344 0.88554608821868896 0
vn -0.46455159783363344 0.88554608821868896 0
vn -0.46455159783363344 0.88554608821868896 0
vn -0.98416990041732784 -0.17722776532173156 0
vn -0.98416990041732784 -0.17722776532173156 0
vn -0.98416990041732784 -0.17722776532173156 0
vn -0.98416990041732784 -0.17722776532173156 0
vn -0.85038799047470096 0.52615612745285032 0
vn -0.6542483568191528 0.7562798261642456 0
vn -0.85038799047470096 0.52615612745285032 0
vn -0.6542483568191528 0.7562798261642456 0
vn -0.75783658027648928 0.6524444818496704 0
vn -0.75783658027648928 0.6524444818496704 0
vn -0.94046765565872192 0.33988326787948608 0
vn -0.94046765565872192 0.33988326787948608 0
vn -0.60343259572982792 -0.79741400480270384 0
vn -0.60343259572982792 -0.79741400480270384 0
vn -0.60343259572982792 -0.79741400480270384 0
vn -0.60343259572982792 -0.79741400480270384 0
vn -0.99985170364379888 -0.01722372137010097 0
vn -0.99985170364379888 -0.01722372137010097 0
vn -0.99985170364379888 -0.01722372137010097 0
vn -0.99985170364379888 -0.01722372137010097 0
vn -0.17603287100791932 0.98438429832458496 0
vn 0.10491397231817246 0.99448132514953616 0
vn -0.17603287100791932 0.98438429832458496 0
vn 0.10491397231817246 0.99448132514953616 0
vn 0.61142081022262576 0.79130560159683232 0
vn 0.61142081022262576 0.79130560159683232 0
vn 0.77513736486434944 0.63179278373718264 0
vn 0.77513736486434944 0.63179278373718264 0
vn -0.93393898010253904 0.35743248462677 0
vn -0.93393898010253904 0.35743248462677 0
vn -0.93393898010253904 0.35743248462677 0
vn -0.93393898010253904 0.35743248462677 0
vn -0.9019582271575928 -0.43182331323623656 0
vn -0.82365733385086064 -0.56708788871765136 0
vn -0.9019582271575928 -0.43182331323623656 0
vn -0.82365733385086064 -0.56708788871765136 0
vn -0.70348316431045536 -0.71071201562881472 0
vn -0.70348316431045536 -0.71071201562881472 0
vn -0.97695136070251472 0.21346202492713928 0
vn -0.97695136070251472 0.21346202492713928 0
vn -0.97695136070251472 0.21346202492713928 0
vn -0.97695136070251472 0.21346202492713928 0
vn -0.13886357843875886 0.99031150341033936 0
vn 0.43988439440727232 0.89805448055267328 0
vn -0.13886357843875886 0.99031150341033936 0
vn 0.43988439440727232 0.89805448055267328 0
vn 0.78638696670532224 0.61773419380187992 0
vn 0.78638696670532224 0.61773419380187992 0
vn 0.8445038795471192 0.53554946184158328 0
vn 0.8445038795471192 0.53554946184158328 0
vn 0.89052534103393552 0.45493364334106448 0
vn 0.89052534103393552 0.45493364334106448 0
vn 0.52760392427444456 -0.84949052333831792 0
vn 0.52760392427444456 -0.84949052333831792 0
vn 0.52760392427444456 -0.84949052333831792 0
vn 0.52760392427444456 -0.84949052333831792 0
vn 0.99917072057724 0.04071752354502678 0
vn 0.98865222930908208 0.15022267401218414 0
vn 0.99917072057724 0.04071752354502678 0
vn 0.98865222930908208 0.15022267401218414 0
vn 0.9750996828079224 0.22176699340343476 0
vn 0.9750996828079224 0.22176699340343476 0
vn 0.99834454059600832 -0.05751713737845421 0
vn 0.99834454059600832 -0.05751713737845421 0
vn 0.95283162593841552 -0.30349951982498168 0
vn 0.95283162593841552 -0.30349951982498168 0
vn -0.33196225762367248 -0.94329267740249632 0
vn -0.28163886070251464 -0.95952051877975456 0
vn -0.33196225762367248 -0.94329267740249632 0
vn -0.28163886070251464 -0.95952051877975456 0
vn -0.31802862882614136 -0.94808113574981696 0
vn -0.31802862882614136 -0.94808113574981696 0
vn -0.18213917315006256 -0.98327279090881344 0
vn -0.18213917315006256 -0.98327279090881344 0
vn 0.54232811927795408 -0.84016686677932736 0
vn 0.54232811927795408 -0.84016686677932736 0
vn 0.64193826913833616 -0.7667564153671264 0
vn 0.64193826913833616 -0.7667564153671264 0
vn 0.36025109887123108 -0.9328553676605224 0
vn 0.36025109887123108 -0.9328553676605224 0
vn -0.89541321992874144 -0.44523614645004272 0
vn -0.89541321992874144 -0.44523614645004272 0
vn -0.89541321992874144 -0.44523614645004272 0
vn -0.89541321992874144 -0.44523614645004272 0
# 148 vertex normals

g node_id450
usemtl mat_48129388
s 1
f 1//1 2//2 3//3
f 2//2 4//4 5//5
f 6//6 7//7 8//8
f 6//6 9//9 7//7
f 6//6 10//10 9//9
f 11//11 12//12 13//13
f 14//14 12//12 11//11
f 14//14 15//15 12//12
f 16//16 17//17 18//18
f 16//16 19//19 17//17
f 20//20 21//21 22//22
f 20//20 23//23 21//21
f 24//24 25//25 26//26
f 27//27 1//1 28//28
f 27//27 2//2 1//1
f 27//27 4//4 2//2
f 6//6 29//29 10//10
f 30//30 29//29 6//6
f 29//29 15//15 14//14
f 15//15 19//19 16//16
f 19//19 23//23 20//20
f 23//23 25//25 24//24
f 25//25 4//4 27//27
f 30//30 15//15 29//29
f 30//30 19//19 15//15
f 19//19 25//25 23//23
f 25//25 30//30 4//4
f 25//25 19//19 30//30
f 31//31 32//32 33//33
f 34//34 35//35 32//32
f 36//36 37//37 38//38
f 37//37 39//39 38//38
f 39//39 40//40 38//38
f 41//41 42//42 43//43
f 43//43 42//42 44//44
f 42//42 45//45 44//44
f 46//46 47//47 48//48
f 47//47 49//49 48//48
f 50//50 51//51 52//52
f 51//51 53//53 52//52
f 54//54 55//55 56//56
f 57//57 33//33 58//58
f 33//33 32//32 58//58
f 32//32 35//35 58//58
f 40//40 59//59 38//38
f 38//38 59//59 60//60
f 44//44 45//45 59//59
f 48//48 49//49 45//45
f 52//52 53//53 49//49
f 56//56 55//55 53//53
f 58//58 35//35 55//55
f 59//59 45//45 60//60
f 45//45 49//49 60//60
f 53//53 55//55 49//49
f 35//35 60//60 55//55
f 60//60 49//49 55//55
f 61//61 62//62 63//63
f 61//61 64//64 62//62
f 65//65 66//66 67//67
f 65//65 68//68 66//66
f 69//69 70//70 71//71
f 69//69 72//72 70//70
f 72//72 73//73 70//70
f 72//72 74//74 73//73
f 74//74 75//75 73//73
f 74//74 76//76 75//75
f 77//77 78//78 79//79
f 77//77 80//80 78//78
f 81//81 82//82 83//83
f 81//81 84//84 82//82
f 85//85 86//86 87//87
f 85//85 88//88 86//86
f 88//88 89//89 86//86
f 88//88 90//90 89//89
f 90//90 91//91 89//89
f 90//90 92//92 91//91
f 93//93 94//94 95//95
f 93//93 96//96 94//94
f 97//97 98//98 99//99
f 97//97 100//100 98//98
f 100//100 101//101 98//98
f 100//100 102//102 101//101
f 103//103 104//104 105//105
f 103//103 106//106 104//104
f 107//107 108//108 109//109
f 107//107 110//110 108//108
f 110//110 111//111 108//108
f 110//110 112//112 111//111
f 112//112 113//113 111//111
f 112//112 114//114 113//113
f 114//114 115//115 113//113
f 114//114 116//116 115//115
f 117//117 118//118 119//119
f 117//117 120//120 118//118
f 121//121 122//122 123//123
f 121//121 124//124 122//122
f 124//124 125//125 122//122
f 124//124 126//126 125//125
f 126//126 127//127 125//125
f 126//126 128//128 127//127
f 128//128 129//129 127//127
f 128//128 130//130 129//129
f 131//131 132//132 133//133
f 131//131 134//134 132//132
f 134//134 135//135 132//132
f 134//134 136//136 135//135
f 136//136 137//137 135//135
f 136//136 138//138 137//137
f 138//138 139//139 137//137
f 138//138 140//140 139//139
f 140//140 141//141 139//139
f 140//140 142//142 141//141
f 142//142 143//143 141//141
f 142//142 144//144 143//143
f 145//145 146//146 147//147
f 145//145 148//148 146//146
#116 polygons

